rotated_Sprint_08100001_forces_filt5Hz.mot
version=1
nRows=52
nColumns=19
inDegrees=yes
endheader
time	R_ground_force_vx	R_ground_force_vy	R_ground_force_vz	R_ground_force_px	R_ground_force_py	R_ground_force_pz	R_ground_torque_x	R_ground_torque_y	R_ground_torque_z	L_ground_force_vx	L_ground_force_vy	L_ground_force_vz	L_ground_force_px	L_ground_force_py	L_ground_force_pz	L_ground_torque_x	L_ground_torque_y	L_ground_torque_z	
2.927000	  0.000000	  0.000000	  0.000000	  0.202139	  0.000000	 -0.631780	  0.000000	  0.000000	  0.000000	-164.283254	1064.012070	 19.163475	  0.867258	  0.000000	 -0.349476	  0.000000	-12.192023	  0.000000
2.927500	  0.000000	  0.000000	  0.000000	  0.204590	  0.000000	 -0.632170	  0.000000	  0.000000	  0.000000	-165.104249	1078.587820	 19.099102	  0.866378	  0.000000	 -0.349293	  0.000000	-12.312291	  0.000000
2.928000	  0.000000	  0.000000	  0.000000	  0.207041	  0.000000	 -0.632560	  0.000000	  0.000000	  0.000000	-165.903081	1093.196510	 19.026609	  0.865504	  0.000000	 -0.349112	  0.000000	-12.433051	  0.000000
2.928500	  0.000000	  0.000000	  0.000000	  0.209492	  0.000000	 -0.632950	  0.000000	  0.000000	  0.000000	-166.679082	1107.835306	 18.945816	  0.864638	  0.000000	 -0.348934	  0.000000	-12.554290	  0.000000
2.929000	  0.000000	  0.000000	  0.000000	  0.211942	  0.000000	 -0.633341	  0.000000	  0.000000	  0.000000	-167.431569	1122.501306	 18.856544	  0.863778	  0.000000	 -0.348758	  0.000000	-12.675993	  0.000000
2.929500	  0.000000	  0.000000	  0.000000	  0.214393	  0.000000	 -0.633731	  0.000000	  0.000000	  0.000000	-168.159851	1137.191541	 18.758613	  0.862924	  0.000000	 -0.348584	  0.000000	-12.798144	  0.000000
2.930000	  0.000000	  0.000000	  0.000000	  0.216844	  0.000000	 -0.634121	  0.000000	  0.000000	  0.000000	-168.863222	1151.902974	 18.651848	  0.862076	  0.000000	 -0.348413	  0.000000	-12.920724	  0.000000
2.930500	  0.000000	  0.000000	  0.000000	  0.219009	  0.000000	 -0.634202	  0.000000	  0.000000	  0.000000	-169.540968	1166.632498	 18.536069	  0.861233	  0.000000	 -0.348243	  0.000000	-13.043712	  0.000000
2.931000	  0.000000	  0.000000	  0.000000	  0.221174	  0.000000	 -0.634283	  0.000000	  0.000000	  0.000000	-170.192365	1181.376937	 18.411097	  0.860396	  0.000000	 -0.348075	  0.000000	-13.167085	  0.000000
2.931500	  0.000000	  0.000000	  0.000000	  0.223339	  0.000000	 -0.634364	  0.000000	  0.000000	  0.000000	-170.816677	1196.133042	 18.276751	  0.859563	  0.000000	 -0.347909	  0.000000	-13.290816	  0.000000
2.932000	  0.000000	  0.000000	  0.000000	  0.225504	  0.000000	 -0.634445	  0.000000	  0.000000	  0.000000	-171.413163	1210.897494	 18.132846	  0.858736	  0.000000	 -0.347745	  0.000000	-13.414876	  0.000000
2.932500	  0.000000	  0.000000	  0.000000	  0.227669	  0.000000	 -0.634525	  0.000000	  0.000000	  0.000000	-171.981077	1225.666900	 17.979192	  0.857913	  0.000000	 -0.347583	  0.000000	-13.539233	  0.000000
2.933000	  0.000000	  0.000000	  0.000000	  0.229834	  0.000000	 -0.634606	  0.000000	  0.000000	  0.000000	-172.519667	1240.437795	 17.815593	  0.857093	  0.000000	 -0.347422	  0.000000	-13.663853	  0.000000
2.933500	  0.000000	  0.000000	  0.000000	  0.231999	  0.000000	 -0.634687	  0.000000	  0.000000	  0.000000	-173.028179	1255.206639	 17.641847	  0.856278	  0.000000	 -0.347263	  0.000000	-13.788697	  0.000000
2.934000	  0.000000	  0.000000	  0.000000	  0.234164	  0.000000	 -0.634768	  0.000000	  0.000000	  0.000000	-173.505863	1269.969825	 17.457744	  0.855467	  0.000000	 -0.347105	  0.000000	-13.913724	  0.000000
2.934500	  0.000000	  0.000000	  0.000000	  0.236329	  0.000000	 -0.634849	  0.000000	  0.000000	  0.000000	-173.951967	1284.723689	 17.263067	  0.854658	  0.000000	 -0.346949	  0.000000	-14.038892	  0.000000
2.935000	  0.000000	  0.000000	  0.000000	  0.238494	  0.000000	 -0.634930	  0.000000	  0.000000	  0.000000	-174.365751	1299.464517	 17.057591	  0.853853	  0.000000	 -0.346794	  0.000000	-14.164154	  0.000000
2.935500	  0.000000	  0.000000	  0.000000	  0.240830	  0.000000	 -0.634803	  0.000000	  0.000000	  0.000000	-174.746479	1314.188557	 16.841081	  0.853051	  0.000000	 -0.346641	  0.000000	-14.289459	  0.000000
2.936000	  0.000000	  0.000000	  0.000000	  0.243167	  0.000000	 -0.634676	  0.000000	  0.000000	  0.000000	-175.093427	1328.892020	 16.613294	  0.852251	  0.000000	 -0.346488	  0.000000	-14.414755	  0.000000
2.936500	  0.000000	  0.000000	  0.000000	  0.245503	  0.000000	 -0.634548	  0.000000	  0.000000	  0.000000	-175.405886	1343.571092	 16.373976	  0.851454	  0.000000	 -0.346337	  0.000000	-14.539986	  0.000000
2.937000	  0.000000	  0.000000	  0.000000	  0.247839	  0.000000	 -0.634421	  0.000000	  0.000000	  0.000000	-175.683160	1358.221940	 16.122863	  0.850659	  0.000000	 -0.346187	  0.000000	-14.665093	  0.000000
2.937500	  0.000000	  0.000000	  0.000000	  0.250175	  0.000000	 -0.634294	  0.000000	  0.000000	  0.000000	-175.924575	1372.840716	 15.859677	  0.849866	  0.000000	 -0.346039	  0.000000	-14.790015	  0.000000
2.938000	  0.000000	  0.000000	  0.000000	  0.252512	  0.000000	 -0.634167	  0.000000	  0.000000	  0.000000	-176.129476	1387.423561	 15.584130	  0.849075	  0.000000	 -0.345891	  0.000000	-14.914689	  0.000000
2.938500	  0.000000	  0.000000	  0.000000	  0.254848	  0.000000	 -0.634040	  0.000000	  0.000000	  0.000000	-176.297231	1401.966608	 15.295923	  0.848285	  0.000000	 -0.345744	  0.000000	-15.039050	  0.000000
2.939000	  0.000000	  0.000000	  0.000000	  0.257184	  0.000000	 -0.633912	  0.000000	  0.000000	  0.000000	-176.427237	1416.465983	 14.994744	  0.847497	  0.000000	 -0.345599	  0.000000	-15.163031	  0.000000
2.939500	  0.000000	  0.000000	  0.000000	  0.259521	  0.000000	 -0.633785	  0.000000	  0.000000	  0.000000	-176.518923	1430.917804	 14.680277	  0.846710	  0.000000	 -0.345454	  0.000000	-15.286565	  0.000000
2.940000	  0.000000	  0.000000	  0.000000	  0.261857	  0.000000	 -0.633658	  0.000000	  0.000000	  0.000000	-176.571751	1445.318185	 14.352199	  0.845924	  0.000000	 -0.345311	  0.000000	-15.409582	  0.000000
2.940500	  0.000000	  0.000000	  0.000000	  0.264392	  0.000000	 -0.633335	  0.000000	  0.000000	  0.000000	-176.585224	1459.663234	 14.010184	  0.845138	  0.000000	 -0.345169	  0.000000	-15.532012	  0.000000
2.941000	  0.000000	  0.000000	  0.000000	  0.266927	  0.000000	 -0.633012	  0.000000	  0.000000	  0.000000	-176.558889	1473.949055	 13.653909	  0.844353	  0.000000	 -0.345027	  0.000000	-15.653784	  0.000000
2.941500	  0.000000	  0.000000	  0.000000	  0.269462	  0.000000	 -0.632689	  0.000000	  0.000000	  0.000000	-176.492338	1488.171749	 13.283051	  0.843569	  0.000000	 -0.344887	  0.000000	-15.774822	  0.000000
2.942000	  0.000000	  0.000000	  0.000000	  0.271997	  0.000000	 -0.632366	  0.000000	  0.000000	  0.000000	-176.385213	1502.327416	 12.897297	  0.842784	  0.000000	 -0.344748	  0.000000	-15.895050	  0.000000
2.942500	  0.000000	  0.000000	  0.000000	  0.274532	  0.000000	 -0.632043	  0.000000	  0.000000	  0.000000	-176.237209	1516.412158	 12.496340	  0.842000	  0.000000	 -0.344610	  0.000000	-16.014386	  0.000000
2.943000	  0.000000	  0.000000	  0.000000	  0.277066	  0.000000	 -0.631720	  0.000000	  0.000000	  0.000000	-176.048071	1530.422074	 12.079884	  0.841215	  0.000000	 -0.344472	  0.000000	-16.132742	  0.000000
2.943500	  0.000000	  0.000000	  0.000000	  0.279601	  0.000000	 -0.631397	  0.000000	  0.000000	  0.000000	-175.817601	1544.353268	 11.647645	  0.840430	  0.000000	 -0.344336	  0.000000	-16.250024	  0.000000
2.944000	  0.000000	  0.000000	  0.000000	  0.282136	  0.000000	 -0.631074	  0.000000	  0.000000	  0.000000	-175.545646	1558.201840	 11.199356	  0.839644	  0.000000	 -0.344201	  0.000000	-16.366128	  0.000000
2.944500	  0.000000	  0.000000	  0.000000	  0.284671	  0.000000	 -0.630751	  0.000000	  0.000000	  0.000000	-175.232107	1571.963885	 10.734770	  0.838857	  0.000000	 -0.344067	  0.000000	-16.480945	  0.000000
2.945000	  0.000000	  0.000000	  0.000000	  0.287206	  0.000000	 -0.630428	  0.000000	  0.000000	  0.000000	-174.876926	1585.635494	 10.253660	  0.838069	  0.000000	 -0.343934	  0.000000	-16.594355	  0.000000
2.945500	  0.000000	  0.000000	  0.000000	  0.289814	  0.000000	 -0.629890	  0.000000	  0.000000	  0.000000	-174.480088	1599.212745	  9.755824	  0.837280	  0.000000	 -0.343802	  0.000000	-16.706229	  0.000000
2.946000	  0.000000	  0.000000	  0.000000	  0.292423	  0.000000	 -0.629351	  0.000000	  0.000000	  0.000000	-174.041611	1612.691700	  9.241087	  0.836489	  0.000000	 -0.343671	  0.000000	-16.816433	  0.000000
2.946500	  0.000000	  0.000000	  0.000000	  0.295031	  0.000000	 -0.628813	  0.000000	  0.000000	  0.000000	-173.561543	1626.068407	  8.709298	  0.835697	  0.000000	 -0.343541	  0.000000	-16.924823	  0.000000
2.947000	  0.000000	  0.000000	  0.000000	  0.297640	  0.000000	 -0.628275	  0.000000	  0.000000	  0.000000	-173.039953	1639.338895	  8.160336	  0.834902	  0.000000	 -0.343413	  0.000000	-17.031253	  0.000000
2.947500	  0.000000	  0.000000	  0.000000	  0.300248	  0.000000	 -0.627737	  0.000000	  0.000000	  0.000000	-172.476922	1652.499176	  7.594106	  0.834105	  0.000000	 -0.343285	  0.000000	-17.135568	  0.000000
2.948000	  0.000000	  0.000000	  0.000000	  0.302856	  0.000000	 -0.627198	  0.000000	  0.000000	  0.000000	-171.872537	1665.545250	  7.010535	  0.833306	  0.000000	 -0.343158	  0.000000	-17.237610	  0.000000
2.948500	  0.000000	  0.000000	  0.000000	  0.305465	  0.000000	 -0.626660	  0.000000	  0.000000	  0.000000	-171.226880	1678.473101	  6.409577	  0.832504	  0.000000	 -0.343033	  0.000000	-17.337215	  0.000000
2.949000	  0.000000	  0.000000	  0.000000	  0.308073	  0.000000	 -0.626122	  0.000000	  0.000000	  0.000000	-170.540024	1691.278707	  5.791210	  0.831700	  0.000000	 -0.342908	  0.000000	-17.434217	  0.000000
2.949500	  0.000000	  0.000000	  0.000000	  0.310682	  0.000000	 -0.625583	  0.000000	  0.000000	  0.000000	-169.812022	1703.958039	  5.155433	  0.830893	  0.000000	 -0.342784	  0.000000	-17.528443	  0.000000
2.950000	  0.000000	  0.000000	  0.000000	  0.313290	  0.000000	 -0.625045	  0.000000	  0.000000	  0.000000	-169.042907	1716.507067	  4.502273	  0.830083	  0.000000	 -0.342662	  0.000000	-17.619717	  0.000000
2.950500	  0.000000	  0.000000	  0.000000	  0.315847	  0.000000	 -0.624272	  0.000000	  0.000000	  0.000000	-168.232686	1728.921763	  3.831781	  0.829270	  0.000000	 -0.342540	  0.000000	-17.707861	  0.000000
2.951000	  0.000000	  0.000000	  0.000000	  0.318404	  0.000000	 -0.623499	  0.000000	  0.000000	  0.000000	-167.381343	1741.198103	  3.144040	  0.828453	  0.000000	 -0.342420	  0.000000	-17.792695	  0.000000
2.951500	  0.000000	  0.000000	  0.000000	  0.320961	  0.000000	 -0.622726	  0.000000	  0.000000	  0.000000	-166.488836	1753.332077	  2.439163	  0.827634	  0.000000	 -0.342301	  0.000000	-17.874040	  0.000000
2.952000	  0.000000	  0.000000	  0.000000	  0.323518	  0.000000	 -0.621953	  0.000000	  0.000000	  0.000000	-165.555101	1765.319686	  1.717300	  0.826811	  0.000000	 -0.342183	  0.000000	-17.951721	  0.000000
2.952500	  0.000000	  0.000000	  0.000000	  0.326075	  0.000000	 -0.621180	  0.000000	  0.000000	  0.000000	-164.580056	1777.156952	  0.978637	  0.825985	  0.000000	 -0.342066	  0.000000	-18.025562	  0.000000
